<?xml version="1.0" encoding="UTF-8"?>
<svg id="Layer_14" data-name="Layer 14" xmlns="http://www.w3.org/2000/svg" viewBox="0 0 440.57 670.95">
  <defs>
    <style>
      .cls-1 {
        stroke-width: .74px;
      }

      .cls-1, .cls-2, .cls-3 {
        fill: none;
        stroke: #570060;
        stroke-linecap: round;
        stroke-linejoin: round;
      }

      .cls-2 {
        stroke-width: 2.95px;
      }

      .cls-3 {
        stroke-width: 1.97px;
      }

      .cls-4 {
        fill: #570060;
        stroke-width: 0px;
      }
    </style>
  </defs>
  <path class="cls-2" d="M5.76,143.91c2.37,10.53,5.01,21,7.9,31.4.45,1.62.95,3.32,2.16,4.48,2.16,2.07,5.59,1.64,8.51,1.08,57.04-10.78,114.94-16.92,172.95-18.35,19.95-.49,40.17-.46,59.44-5.68,11.58-3.13,24.26-8.06,35-2.68,5.33,9.09.33,20.56-4.65,29.85-12.86,23.96-25.71,47.93-38.57,71.89-3.15,5.88-5.38,14.95.64,17.74-15.61,29.94-18.23,70.66,5.6,94.5,10.8,10.8,22.03,21.37,34.72,29.84,10.29,6.87,6.41,9.59,36.52,19.68,3.91,1.31,25.85,68.35,27.54,105.59.52,11.52.38,23.19-2.36,34.38-9.74,39.84-55.32,66.09-94.88,56.16-12.25-3.07-24.82-10.31-28.46-22.47-3.64-12.16,7.55-27.78,19.6-23.99,3.99,1.25,7.53,4.94,7.23,9.13s-5.88,7.37-9.02,4.6c1.29-4.72.62-9.94-1.8-14.18-6.49-2.32-13.93,3.3-15.07,10.14s2.78,13.75,8.28,17.93c14.29,10.84,37.57,3.21,44.86-13.24,7.29-16.45-.65-37.33-15.78-46.94-15.13-9.61-35.46-8.7-51.23-.18-8.85,4.79-16.62,11.96-21,21.05-3.29,6.85-4.56,14.53-4.9,22.13-.84,18.78,4.17,38.28,16.27,52.61,12.25,14.52,31.55,28.74,50.3,31.36,18.75,2.62,40.12,4.99,58.69,1.31,19.97-3.96,41.38-17.53,57.39-30.18,17.47-13.81,33.6-40.03,39.13-61.68,5.53-21.65,13.04-23.62,6.52-49.87-5.91-23.78,0-64.3-7.83-94.49,15.65,0,17.83-21.94,20.83-38.85,5.35-30.13,9.65-64.64-9.71-88.25-2.55-3.11-5.5-6-7.14-9.69-1.79-4.03-2.91-8.75-1.76-13.01,13.43-49.67,8.56-94.91-6.14-134.97-11.86-32.31-38.18-50.58-66.41-70.07-28.22-19.49-60.06-32.93-91.64-46.23,3.06-1.09,4.11-5.84,2.64-8.75-1.46-2.92-4.4-4.74-7.19-6.41-3.63-2.17-7.44-4.4-11.65-4.63-8.66-.46-15.3,7.39-19.95,14.75-3.73,5.91-7.18,12.05-11.76,17.32-5.41,6.23-12.22,11.04-18.96,15.78-8.81,6.21-18.53,12.69-29.27,12.11.08-1.84-.44-3.71-1.46-5.25-9.25,13.91-18.51,28.02-27.76,41.92-5.41,8.13-11.21,16.61-19.95,20.9-5.48,2.69-11.67,3.48-17.72,4.23-17.76,2.21-18.54,9.48-36.3,11.68-9.78,1.21-33.11,1.19-42.42,4.45Z"/>
  <g>
    <path class="cls-1" d="M295.3,143.52c4.5,1.1,8.64-2.58,11.84-5.95,5.24-5.53,10.48-11.05,15.73-16.58.92-.97,1.87-1.98,2.37-3.22.53-1.32.55-2.83,1.24-4.06.9-1.6,2.72-2.37,4.29-3.32,4.3-2.61,7.17-7.04,9.38-11.57,1.01-2.08,1.94-4.24,3.45-5.99,1.69-1.95,4.02-3.26,5.78-5.16s2.85-4.88,1.47-7.07c2.33,1.51,4.97,2.88,7.29,4.4-4.83,3.44-3.3,11.32-6.8,16.12-1.78,2.45-4.53,3.96-6.83,5.92-4.53,3.86-7.23,9.39-10.55,14.33-1.59,2.38-3.35,4.64-5.25,6.78-7.43,8.35-16.92,14.54-26.28,20.62-.03,1.66.19,3.94.15,5.59,7.56.88,13.4-6.31,20.43-9.27,4.12-1.73,8.96-2.11,12.28-5.11,2.58-2.33,3.76-5.84,6.02-8.47,1.92-2.23,4.51-3.74,6.97-5.34,10.76-7.02,19.65-16.52,28.43-25.93,1.15,1.93,2.18,3.72,3.33,5.66-6.18,1.61-8.98,9.26-12.86,14.36-6.07,7.95-15.71,12.1-23.59,18.24-4.65,3.62-8.74,7.98-13.75,11.08-10.19,6.31-24.03,7.39-31.13,17.07.36-3.32-.04-7.2-.9-10.43-.86-3.23-3.22-6.28-6.48-6.93.28-1.81,2.51-4.65,3.97-5.75Z"/>
    <path class="cls-1" d="M351.73,108.9c5.05-4.94,8.39-11.34,11.64-17.63,1.97.63,3.73,1.89,4.97,3.55-5.43,3.65-8.55,9.89-13.4,14.28-5.09,4.61-10.91,8.48-15.83,13.09,1.97-5.71,8.45-9.21,12.62-13.29Z"/>
    <path class="cls-1" d="M329.71,101.92c6.79-3.68,12.1-10.04,14.53-17.41,3.1-9.4-4.51-.53-6.27,2.38-1.85,3.05-5.42,13.5-8.26,15.03Z"/>
    <path class="cls-1" d="M368.12,122.37c4.71-3.58,9.42-7.17,14.13-10.75.54.81,1.08,1.61,1.61,2.42-5.27,2.17-10.45,4.59-15.49,7.24"/>
    <path class="cls-1" d="M348.33,143.59c14.22-6.09,27.23-15.01,38.06-26.09,1.41.93,3.42,1.81,4.84,2.74-8.34,5.05-16.67,10.09-25.01,15.14-4.92,2.97-12.3,6.94-17.89,8.21Z"/>
    <path class="cls-1" d="M391.95,128.51c.27-.19,2.08,2.43,2.25,2.76-4.23,2.95-11.08,6.67-16.38,6.78,4.53-3.34,9.5-6.27,14.13-9.54Z"/>
    <path class="cls-3" d="M300.43,167.94c-1.08,3.43-3.06,6.56-5.69,8.99,10.8-.96,21.61-1.93,32.41-2.89,5.05-.45,10.18-.92,14.94-2.67,5.13-1.89,9.62-5.2,14.61-7.44,7.98-3.59,16.9-4.33,25.62-5.02,4.75-.38,9.49-.75,14.24-1.13,2.29-.18,4.67-.39,6.65-1.56s3.43-3.6,2.72-5.8c-4.81,1.72-9.57,2.99-14.38,4.7,3.65-2.9,6.75-5.74,10.4-8.64.45-4-1.15-8.79-3.79-11.82-2.48,4.4-6.95,8-11.61,9.9,3.06-3.37,5.96-7.14,9.03-10.5-7.53,2.85-13.02,10.21-20.91,11.84-2.37.49-4.84.42-7.17,1.05-7.14,1.92-11.77,9.9-19.1,10.86-2.37.31-4.78-.18-7.17-.18-5.76-.01-11.11,2.72-16.49,4.78-7.74,2.95-16.02,5.33-24.3,5.54Z"/>
    <path class="cls-1" d="M322.37,178.54c6.38.2,12.79-.51,18.97-2.1,3.77-.97,7.47-2.26,11.3-2.97,5.95-1.11,12.06-.79,18.1-1.15,13.31-.8,26.4-4.95,37.76-11.98-.58-.97-1.36-2.44-1.94-3.4-10.53,5.9-22.57,9.05-34.52,10.66-4.55.61-9.14.9-13.69,1.57-5.95.88-11.78,2.41-17.6,3.94-6.25,1.64-12.5,3.28-18.75,4.92-.36.09-.78.26-.82.63s1.32.22,1.19-.12Z"/>
    <path class="cls-1" d="M289.96,187.46c6.48-3.77,14.56-1.91,22.02-1.29,20.29,1.67,40.01-6.8,60.31-8.37,5.49-.43,11.05-.35,16.46-1.39,7.52-1.45,14.61-5.1,20.17-10.39.51,3.36,1.01,6.72,1.52,10.08-12.6,8.19-28.6,7.98-43.38,10.6-15.74,2.79-31.14,9.54-47.04,8.02-6.17-.59-12.19-2.42-18.37-2.84s-12.93.85-17.17,5.4c2.35-2.94,2.24-7.94,5.49-9.83Z"/>
    <path class="cls-1" d="M284.92,199.31c9.17-1.25,18.18,2.6,27.31,4.16,23.35,3.98,46.49-7.11,70.1-9.03,10.58-.86,21.8,0,31.16-5.04-.38-1.93-.77-3.83-1.15-5.77-11.91,9.13-29.19,3.9-43.86,6.92-6.78,1.39-13.13,4.4-19.81,6.23-20.78,5.69-42.25,1.17-63.74,2.54Z"/>
    <path class="cls-3" d="M278.4,204.19c3.91,4.96,10.61,6.86,16.9,6.91,6.29.05,12.49-1.44,18.76-1.93,12.15-.94,24.48,1.91,36.49-.16,6.15-1.06,12.01-3.39,18.03-5.06,14.53-4.03,29.8-4.21,44.87-4.35.93,2.79,1.35,4.86,1.19,7.8-19.65.76-39.25,3.03-58.66,6.23-6.22,1.02-12.56,2.22-18.04,5.35,11.17.62,22.4,1.86,33.51.58,2.21-.26,4.43-.59,6.65-.64,2.82-.07,5.63.3,8.43.66,9.13,1.18,18.35,2.23,27.51,1.3.19,1.55.97,2.95,1.16,4.5-17.22-.17-34.43-.62-51.65-.79-8.31-.08-16.64-.16-24.91.64-11.35,1.09-23.02,3.8-33.95.51-3.62-1.09-7.04-2.82-10.7-3.78-7.87-2.06-17.35-.86-23-6.75,4.15-1.69,5.4-7,7.4-11.03Z"/>
    <path class="cls-1" d="M355.21,235.15c-12.08,4.45-25.45,1.26-38.3,1.64-3.8.11-7.64.53-11.36-.22-3.7-.75-7.1-2.63-10.79-3.41-3.51-.74-7.15-.47-10.73-.61-3.59-.14-7.34-.78-10.15-3.03-2.81-2.25-3.64-6.8-1.79-9.9,1.07,4.02,4.3,7.38,8.25,8.59,23.65,7.26,49.19,9.9,73.43,4.99-.24,1.32.13,1.8,1.46,1.94Z"/>
    <path class="cls-1" d="M361.96,230.64c2.83,3.7,8.48,2.78,12.98,3.93,3.03.77,5.71,2.6,8.74,3.35,5.62,1.39,11.47-1.08,17.25-.86,4.52.17,8.79,1.98,12.96,3.75.77-1.35,1.75-3.03,2.52-4.38-3.49.78-7.2-.81-10.76-1.23-1.6-.19-3.2-.38-4.81-.58-13.45-1.62-25.43-2.36-38.88-3.98Z"/>
    <path class="cls-3" d="M267.46,217.8c-1.63,5.49-2.86,11.32-1.63,16.91,1.23,5.59,5.52,10.85,11.17,11.53,3.39.41,6.72-.82,10.06-1.54,9.52-2.04,19.36.07,29.07.9,23.52,2.03,47.18-3.47,70.72-1.7,8.92.67,18.01,2.38,26.71.26-1.63,3.21-2.5,6.63-2.41,10.23-8.54.6-17.09-.49-25.62-1.19-1.52-.13-3.03-.25-4.55-.38-4.9-.4-9.81-.81-14.72-.75-8.84.11-17.64,1.74-26.06,4.48,3.32-.24,6.18,1.38,9.51,1.14,1.71-.13,3.42-.25,5.13-.13,1.33.09,2.65.33,3.97.43,4.8.38,9.56-.97,14.37-1.19,3.41-.16,6.82.25,10.21.65,9.59,1.14,19.17,2.29,28.76,3.43-.77,1.35-1.36,2.01-2.13,3.36.19.77.38,2.13.58,2.9-8.83-1.28-17.65-2.16-26.48-3.44-3.18-.46-6.35-.92-9.53-1.38-8.72-1.26-17.5-2.53-26.3-2.16-7.08.29-14.08,1.64-21.14,2.25-13.75,1.2-27.57-.36-41.35-1.2-8.18-.5-17.17-.48-23.53,4.72-3.05,2.5-5.16,5.95-7.06,9.42-4.8,8.77-8.64,18.08-11.42,27.69-2.98,6.7-4.83,13.91-5.47,21.22,6.63-13.81-1.16-31.58,6.11-45.05,2.58-4.78,6.78-8.41,10.92-11.9,6.43-5.41,13.14-10.86,21.13-13.41,6.01-1.92,12.42-2.09,18.73-2.24,6.15-.15,12.3-.3,18.45-.45-7.18-2.73-15.1-6.04-22.75-5.46-8.11.61-15.78,4.39-23.91,4.7-3.58-7.78-7.12-16.87-3.84-24.78.89-2.15,2.95-5.99,4.29-7.89Z"/>
    <path class="cls-1" d="M248.5,261.48c2.01-7.94,4.43-15.77,7.25-23.45,1.78,4.7,5.7,8.82,10.12,11.17-6.53,1.17-12.54,7.71-17.37,12.28Z"/>
    <path class="cls-1" d="M273.14,270.03c5.06-1.64,10.47-1.72,15.79-1.79,21.72-.27,43.43-.54,65.15-.81-19.01,6.01-39.29,5.38-59.18,4.21-5.09-.3-10.42-.58-15.05,1.57-1.82.84-3.63,2.07-5.62,1.85s-2.99-4.41-1.09-5.03Z"/>
    <path class="cls-1" d="M261.21,284.47c-9.87,7.92-15.93,20.45-16.03,33.15,2.48-2.92,4.87-5.87,7.35-8.79,3.02-3.56,1.4-9.82,3-14.21,1.44-3.96,2.17-7.85,5.68-10.15Z"/>
    <path class="cls-1" d="M328.33,278.68c-17.9-1.99-36.7-3.86-53.33,3.09,5.34,1.16,10.29-.85,15.69-1.63,3.03-.43,6.12-.36,9.18-.29,10.39.24,18.06-1.42,28.45-1.17Z"/>
    <path class="cls-1" d="M404.75,272.59c-9.65,2.22-19.83,2.09-29.43-.38,10.01-.63,19.53-1.23,29.43.38Z"/>
    <path class="cls-1" d="M239.22,337.34c1.15,3.95,5.74,5.83,7.71,9.45.87,1.6,1.17,3.44,1.39,5.25.61,4.93.9,10.22,3.87,14.18-.21-5.78-1.22-11.39-2.51-17.03-.68-2.98-1.56-6.02-3.42-8.43-1.87-2.42-4.05-4.02-7.03-3.42Z"/>
    <path class="cls-3" d="M270.64,373.84c-6.36-10.43-13.11-24.02-15.3-34.69-2.6-12.67-2.35-31.29,9.28-36.82,12.04-5.73,25.6-7.16,38.85-8.52,17.06-1.74,34.14-4.61,51.2-6.35.38-2.51.79-6.07,1.17-8.59-12.29,3.02-24.9,4.74-37.55,5.1-8.27.24-16.84.18-24.14,4.07-4.39-1.48-9.18-.46-13.7.56-5.23,1.19-11.2,2.82-16.43,4-4.44,7.6-8.87,15.2-13.31,22.8-1.47,2.51-2.95,5.07-3.65,7.9-2.11,8.6,3.38,16.99,5.69,25.54,1.01,3.74,1.43,7.67,3.06,11.19,1.93,4.18,5.4,7.41,8.79,10.52,3.19,2.93,6.37,5.86,9.56,8.79-4.23-3.89-2.36-10.46-3.38-15.5-1.47-7.32-4.96-14.12-8.55-20.59-2.22-3.99-4.57-8.73-2.73-12.91,6.55,5.41,16.96,5.81,24.46,1.84,3.2-1.69,5.94-4.17,9.15-5.83,3.83-1.99,8.14-2.75,12.39-3.48,12.75-2.21,25.49-4.42,38.24-6.63,12.18-2.11,24.39-4.23,36.71-5.24,5.8-.48,11.63-.72,17.33-1.88,5.01-1.02,9.88-2.75,14.41-5.12,2.05,4.67,4.55,9.48,6.24,14.29-2.46-2.71-4.79-5.35-6.33-8.68-2.47,5.77-10.03,6.29-16.19,7.35-10.72,1.84-21.47,3.46-32.26,4.85-4.75.61-9.75,1.15-14.2-.64-12.77,3.82-25.65,7.14-38.41,10.97-2.2.66-4.5,1.32-6.76.93-1.96-.34-3.79-1.47-5.78-1.44-2.45.04-4.48,1.78-6.52,3.15-3.63,2.44-7.91,3.88-12.27,4.13-1.51.09-3.14.07-4.34.99-.98.74-1.47,1.96-1.85,3.14-2.52,7.81-1.93,16.59,1.61,23.99,4.53,9.49,13.27,16.11,21.7,22.36,5.22,3.87,11.63,7.94,17.73,5.73,4.93-1.79,7.58-7.02,11.3-10.74,4.75-4.74,11.73-7.11,18.37-6.22,11.49,1.54,23.35-.46,34.76-2.56,15.26-2.82,29.96-9.42,45.47-9.4-2.76,3.33-5.17,6.53-7.22,10.35,1.73,2.44,2.73,5.39,2.87,8.38-3.6-1.62-5.71-4.35-8.97-6.58-3.26-2.23-7.04-4.1-10.96-3.78-3.74.3-7.18,2.55-10.94,2.54,2.98,1.12,4.75,2.74,7.73,3.85,2.39.9,4.84,1.83,6.73,3.54,1.18,1.07,2.11,2.41,3.36,3.41,3.14,2.52,7.57,2.38,11.58,2.11-.75,1.41-.85,3.25-.46,4.8.14.54.35,1.09.28,1.64-.08.68-.54,1.25-.92,1.82-1.21,1.83-1.61,4.18-1.09,6.32-.33-4.13-3.74-7.35-6.75-10.18-5.28-4.98-10.8-10.1-17.69-12.34-5.87-1.91-12.2-1.54-18.36-1.15-6.5.41-13.01.82-19.51,1.23-6.21.39-12.6.83-18.19,3.59-5.58,2.76-10.21,8.47-9.77,14.71-7.24-.28-14.88,1.08-21.7,3.54-12.88-4.41-21.3-24.94-33.86-30.18Z"/>
    <path class="cls-1" d="M351.23,301.76c-13.8,1.27-27.67,1.89-41.53,1.86-7.37-.02-14.79-.21-22.06,1.02-7.27,1.24-14.48,4.04-19.74,9.23,28.4-4.1,55.7-4.47,84.39-4.32.03-2.15-1.08-5.66-1.05-7.8Z"/>
    <path class="cls-1" d="M358.81,278.19c-.59,5.61-.26,11.32.95,16.84,16.41,2.4,33.4,2.03,49.61-1.53-.4-2.71-.78-5.06-1.17-7.76-10.86-.02-21.63-.55-32.49-.57-1.86,0-3.74,0-5.55.41-3.67.85-7.24,3.4-10.86,2.34,8.06-7.71,19.87-8.75,30.97-8.1,5.68.33,11.34,1.1,16.84,2.52.95-3.1,2-5.11,2.95-8.21-7.9,2.76-16.13,4.17-24.5,4.08-3.56-.04-7.09-.61-10.63-1.01-6.35-.72-9.74.66-16.13.99Z"/>
    <path class="cls-1" d="M357.49,300.84c1.33,2.07,2.19,4.46,2.47,6.91,5.87-2.88,13.27-2.09,19.8-1.96,9.6.19,19.22-.82,28.58-3-.19-1.38-.33-3.53-1.28-4.54-16.28,3.13-33.02,3.63-49.57,2.59Z"/>
    <path class="cls-1" d="M277.85,301.12c9.46-3.32,19.9-1.21,29.84-2.48,4.5-.57,8.88-1.83,13.33-2.67,9.16-1.71,18.55-1.59,27.86-1.46"/>
    <path class="cls-1" d="M321.22,316.58c-11.97,1.14-23.94,2.29-35.91,3.43-1.7.16-3.44.34-4.99,1.07-3.31,1.58-4.95,5.31-6.31,8.74,10.76-5.86,22.99-10.54,35.12-12.1"/>
    <path class="cls-1" d="M282.33,346.91c5.28-6.24,13.6-9.03,21.67-10.13,8.08-1.09,16.31-.77,24.34-2.16,8.21-1.42,16.06-4.62,24.31-5.83,15.32-2.25,31.38,2.41,46.24-1.98,7.55-2.23,16.01-6.62,22.63-2.35-9.12,3.9-19.97,7.67-29.48,10.48-3.19.94-6.48,1.83-9.8,1.64-3.59-.21-6.97-1.68-10.47-2.51-6-1.43-12.27-.98-18.41-.38-13.05,1.28-26.04,3.21-39.01,5.15-5.07.75-10.14,1.51-15.1,2.8-6.09,1.58-11.44,2.2-16.93,5.28Z"/>
    <path class="cls-1" d="M286.05,356.5c.77,1.35,1.54,2.7,2.32,4.05,11.65-4.17,24.55-6.48,36.9-7.2-8.4,3.71-16.8,7.64-25.2,11.35-3.7,1.63-7.94,3.97-8.35,8.02,2.5,2.51,5.12,6.2,7.61,8.71,8.4-10.23,22.11-15.04,34.53-19.51,9.54-3.43,19.2-6.89,29.29-7.85,13.1-1.25,26.6,1.74,39.35-1.55,5.78-1.49,11.39-4.26,17.36-4.05-2.25-2.49-5.6-2.68-8.82-1.78-3.22.89-6.11,2.71-9.26,3.82-7.16,2.53-15.01,1.25-22.58.66-15.05-1.18-30.32.5-44.76,4.94,7.55-4.5,15.04-8.43,23.71-9.75,3.85-.59,7.76-.51,11.65-.42,14.48.32,29.22.7,43.17-3.24,3.77-1.06,8.28-3.93,7.17-7.71-15.89,3.56-31.76,5.84-48,7.03-7.87.58-15.76.59-23.64,1.11-22.03,1.45-41.16,7.45-62.45,13.36Z"/>
    <path class="cls-1" d="M310.97,382.69c17.75-15.64,42.86-18.77,66.33-21.21,14.94-1.55,29.88-3.11,44.83-4.66.15.82-.05,1.36-.49,2.06-9.84.11-19.67,1.68-29.07,4.64-10.79-.67-21.63,4.59-32.4,5.5-3.95.33-7.92.17-11.87.44-13.29.94-26.14,7.11-35.22,16.92-1.04-.52-1.82-2.55-2.11-3.69Z"/>
    <path class="cls-1" d="M414.37,298.56c2.42,7.89,4.85,15.78,7.27,23.68.73,2.37,3,3.89,4.53,5.83-1.17-4.32-1.26-8.87-2.3-13.22-1.48-6.16-4.88-11.97-9.5-16.28Z"/>
    <path class="cls-1" d="M423.29,332.13c3.44,11.22,6.87,22.45,10.31,33.67-1.06-10.1-3.36-19.5-6.87-29.02-.84-2.29-1.38-3.36-3.44-4.65Z"/>
    <path class="cls-1" d="M417.36,343.24c3.65,4.76,7.29,9.52,10.94,14.27-1.89-6.72-3.79-13.43-5.68-20.15.02,3.42.12,6.24.14,9.65-1.18-1.62-3.11-2.65-5.11-2.73.53,0-.82-1.05-.29-1.04Z"/>
    <path class="cls-1" d="M425.24,367.51c-.01,8.54-.6,17.09-1.75,25.55,1.87-3.17,2.75-6.84,3.09-10.51.18-1.89.14-3.82.68-5.64.53-1.82-3.84-8.94-2.01-9.4Z"/>
    <path class="cls-1" d="M430.85,372.17c-1.81,6.79-3.07,13.73-3.79,20.72,5.62-7.25,5.28-17.34,4.68-26.52-1.92.77,1.03,5.02-.9,5.8Z"/>
    <path class="cls-1" d="M422.72,413.35c-1.9,1.82-4.64,3.43-5.8,5.8-1.02-6.41.46-13.19,4.07-18.57,1.93.33,2.79-.45,4.64-1.07-1.18,3.55-2.64,10.1-2.91,13.83Z"/>
    <path class="cls-1" d="M412.91,413.34c-.38-.39-1.31-1.46-1.7-1.85,1.39-7.04-3.74-14.07-10.18-17.15-6.44-3.08-13.86-3.12-20.98-2.93-2.96.08-5.95.19-8.79,1.02-1.81.53-3.63,1.35-5.5,1.1-1.2-.16-2.29-.76-3.47-1.05-2.9-.7-5.87.56-8.76,1.31s-6.47.79-8.29-1.6c9.01-.6,18.23-2.88,27.24-3.49,6.51-.44,13.09-.87,19.53.15,6.45,1.02,12.85,3.63,17.29,8.43s5.91,9.91,3.61,16.06Z"/>
    <path class="cls-3" d="M332.53,418.45c-1.38-4.37-3.94-8.35-7.33-11.41,3.37-1.67,6.74-4.7,8.18-8.19,4.23,1.74,8.42,2.89,12.65,4.63,6.54,2.69,14.21.58,21-1.4,2.7-.79,5.38-1.77,8.18-2,2.48-.21,4.99.19,7.47.02,5.57-.37,10.97-3.52,16.44-2.39,3.71.77,6.93,3.63,8.14,7.24.21.63-.14,1.71-.7,1.34-.95,1.75-1.85,3.61-2.8,5.36-5.5-2.26-11.05-5.18-16.55-7.44.71-.07-.01,1.07-.72,1.12-4.99.35-9.91,1.72-14.37,4-2.23,1.14-4.51,2.54-7.01,2.41-.03.54-.07,1.07-.1,1.61-4.38.81-8.77,1.46-13.15,2.27-1.97.37-4.38.57-5.6-1.03-5.19,1.74-8.56,2.14-13.75,3.87Z"/>
    <path class="cls-1" d="M268.74,77.94c.75,2.49.78,5.14.8,7.75.03,4.18.06,8.36.09,12.55.71.63,1.91.26,2.48-.5s.69-1.76.78-2.71c.37-3.67.74-7.38.2-11.03-.58-3.95-2.23-7.73-4.73-10.83-.9-1.12-2.07-1.84-3.45-1.92,1.12,2.11,3.06,4.22,3.81,6.7Z"/>
    <path class="cls-1" d="M268.79,104.15c-.92,1.28-1.55,2.78-1.82,4.34-.07.39-.11.82.06,1.18.6,1.29,2.7.14,2.9-1.26s-.42-2.9.06-4.23"/>
    <path class="cls-1" d="M262.82,120.27c-.54,3.91-1.08,7.82-1.62,11.73-.7,5.05-1.41,10.15-3.21,14.92,8.11-6.48,9.51-17.35,4.84-26.65Z"/>
    <path class="cls-1" d="M323.53,405.8c-.23,1.29-.51,2.57-.84,3.83-3.37-.25-6.74-.5-10.11-.75-.75-1.33-.34-2.54,1.17-2.65,3.07-.23,6.71-.2,9.78-.43Z"/>
    <path class="cls-1" d="M395.08,413.62c-15.87,2.42-31.53,6.19-46.77,11.24,4.2-.6,9.63-.76,13.86-.46,5.2.37,9.93-3.31,15.01-4.46,7.1-1.61,11.97-2.06,17.9-6.31Z"/>
    <path class="cls-1" d="M373.19,413.59c3.01-.66,6.02-1.32,9.02-1.99,2.32-.51,4.74-1.02,7.06-.52"/>
    <path class="cls-3" d="M332.2,423.26c1.53-.24,3.06-.48,4.59-.73,4.79,2.53,9.84,4.7,15.08,6.05,2.8-.37,5.59-.73,8.39-1.1.81-.11,1.62-.21,2.43-.15.9.07,1.77.35,2.67.35.75,0,1.49-.2,2.21-.39,7.71-2.06,15.41-4.12,23.12-6.18,4.02-1.07,8.63-2.69,9.92-6.66.38,2.13,1.54,4.89,1.92,7.02-13.69-1.14-26.36,10.24-40.04,11.5-4.9.45-10.79.1-13.63,4.15,7.11,2.46,14.35,2.13,21.81,1.17,4.15-.53,8.39-1.09,12.14-2.96,2.93-1.46,5.46-3.66,8.44-5.03,3.82-1.75,8.48-2.22,11.21-5.42-.02,2.37.99,5.38,1.65,7.65-7.96-.62-17.17,3.53-24.96,5.31-4.75,1.09-9.62,1.53-14.47,1.97-7.66.7-15.33,1.4-22.99,2.1-.81-1.35-2.65-1.95-4.09-1.35.32-5.89-1.22-13.18-5.4-17.31Z"/>
    <path class="cls-3" d="M340.2,449.33c1.9,5.23,3.8,10.46,5.7,15.69,20.93.3,40.13-16.2,60.82-13.03-.45-3.35-1.35-6.44-2.33-9.68-6.36,4.01-14.19,5.28-21.57,6.63-4.39.8-8.77,1.6-13.16,2.4-1.35.25-2.87.61-3.57,1.8-.36.62-.45,1.41-.96,1.92-.75.76-2,.53-3.03.25-7.82-2.14-15.65-4.29-23.47-6.43.54.54,1.31-.25,1.57.47Z"/>
    <path class="cls-1" d="M377.05,447.27c2.04-.84,3.97-1.96,6.08-2.6,1.75-.53,3.59-.71,5.41-.94,6.62-.86,13.15-2.5,19.4-4.87,1.56-.59,3.44-2.1,2.58-3.54-6.67,0-13.33,1.35-19.47,3.97-3.57,1.52-6.98,3.47-10.74,4.42-4.25,1.08-8.75.84-12.96,2.07-3.78,1.1-7.19,3.2-11.21,3.29,7.14.07,14.09,1.02,20.92-1.8Z"/>
    <path class="cls-1" d="M355.3,472.94c4.45.37,9-.68,12.84-2.97,1.25-.75,2.48-1.64,3.92-1.88,1.07-.18,2.16.02,3.24-.03,3.59-.18,6.39-3.05,9.6-4.67,3.29-1.66,7.05-2,10.72-2.32,3.43-.3,6.85-.59,10.28-.89,0-.97.1-2.36.1-3.33-8.45-1.06-16.73,2.85-24.6,6.14-9.14,3.82-16.67,6.95-26.1,9.95Z"/>
    <path class="cls-3" d="M346.06,473.07c2.22,3.57,7.1,4.04,11.28,4.13,6.24.14,12.63.25,18.57-1.69,3.42-1.12,6.58-2.89,9.86-4.36,6.66-2.98,13.8-4.69,20.9-6.35-.49,3.46-.11,6.57.11,10.05-7.08-1.71-13.52,1.2-20.45,3.45-5.62,1.82-11.24,3.65-16.86,5.47-.98.32-1.99.65-2.78,1.33-.53.46-.94,1.05-1.52,1.44-.59.39-1.3.53-1.99.66-3.39.64-6.78,1.29-10.17,1.93-2.2-5.2-3.71-11.43-6.95-16.05Z"/>
    <path class="cls-1" d="M361.43,491.22c4.79,1.95,10.22,1.07,15.26-.11,2.93-.69,5.83-1.46,8.74-2.24,3.1-.83,6.2-1.66,9.31-2.49,4.37-1.17,8.74-2.33,13.11-3.5,0-1.16.46-2.06.46-3.22-3.9-.26-7.2,4.35-11.08,3.83-.73-.1-1.46-.36-2.18-.19-1.1.25-1.81,1.44-2.92,1.65-.74.14-1.49-.18-2.25-.19-.97-.01-1.86.5-2.72.94-8.22,4.18-18.14,3.01-26.87,5.92.63.14.55-.65,1.15-.41Z"/>
    <path class="cls-1" d="M383.35,482.66c2.34,1,4.71-1.21,7.15-1.93.95-.28,1.96-.33,2.95-.42,3.45-.33,6.81-1.26,10.14-2.19"/>
    <path class="cls-1" d="M407.53,485.47c.64,1.8.54,3.37,1.18,5.17-2.93-.19-5.81.78-8.56,1.83-7.46,2.86-14.64,6.46-21.41,10.72-1.94,1.22-3.87,2.51-6.03,3.28-5.23,1.85-11.56.43-16.48,2.99-.62-5.29-1.81-10.5-3.54-15.54,1.19.68,2.5,1.27,3.34,2.36,9.66,2.19,20.09-.2,29.66-2.76,3.07-.82,6.13-1.64,9.2-2.46,2.38-.64,4.79-1.29,6.92-2.52,2.22-1.28,3.44-4.23,5.72-3.08Z"/>
    <path class="cls-1" d="M375.95,507.73c5.54-.75,9.43-2.47,14.44-5,5.89-2.96,12.1-6,18.69-5.82"/>
    <path class="cls-3" d="M410.09,503.78c-14.81,5.56-30.55,8.63-46.36,9.05-3.22.08-6.62.01-9.41-1.62-.25,4.25.83,9.08,1.31,13.31,3.3,1.32,7.21,2.27,10.73,2.76,8.3,1.17,16.5-2.39,24.85-3.05,5.01-.4,10.08.26,15.07-.37,1.49-.19,3.12-.58,3.99-1.82.55-.79.69-1.78.81-2.73.37-2.91.74-5.81,1.12-8.72-6.55,3.05-13.13,5.75-19.68,8.8.21.15.46-.25.31-.46s-.46-.22-.73-.22c-4.8.16-9.51,1.31-14.29,1.77s-9.85.14-13.96-2.37c5.28-1.7,10.57-2.79,16.08-3.41,2.17-.25,4.37-.41,6.45-1.09,1.89-.61,3.62-1.63,5.43-2.43,6.2-2.74,12.9-3.29,18.29-7.41Z"/>
    <path class="cls-3" d="M357.13,530.33c.33,2.97.08,6.01-.72,8.89,4.8,3.58,10.89,4.67,16.83,5.32,8.36.92,16.75,1.52,25.16,1.79,4.04.13,8.27.24,11.82,2.19-.61-2.37-.83-4.76-1.44-7.13-.09-.33-.2-.7-.49-.88s-.79.06-.7.39c1.41-.19,2.75-.71,4.07-1.25-.3-1.14-.38-2.35-.24-3.52-18.1,5.33-37.49,2.88-54.26-5.8Z"/>
    <path class="cls-1" d="M411.27,534.86c-2.78-1.01-5.74-1.52-8.69-1.48-1.67.02-3.33.21-5,.32-3.43.22-6.87.12-10.28-.33-1.05-.14-2.11-.31-3.17-.24-1.04.06-2.04.35-3.06.58-4.22.94-8.68.83-12.85-.33,10.95-1.71,21.78-2.68,32.87-2.67,3.61,0,7.51.2,10.3,2.5.58.48.54,1.33-.13,1.66Z"/>
    <path class="cls-1" d="M409.05,552.84c-4.38-.13-8.75-.26-13.13-.4-2.01-.06-4.02-.12-5.99-.52-1.37-.28-2.71-.72-4.1-.93-2.11-.32-4.26-.1-6.39-.06-4.21.07-8.43-.62-12.4-2.01,2.04-1.52,4.44-1.48,6.97-1.22,11.93,1.23,23.85,2.46,35.78,3.69-.11.33-.62,1.12-.74,1.45Z"/>
    <path class="cls-1" d="M355.8,546.2c.03,3.4,1.21,6.79,3.28,9.47.48.62,1.02,1.22,1.69,1.63.62.38,1.32.59,1.99.88,1.85.82,3.34,2.26,4.91,3.53,7.94,6.39,18.42,8.51,28.53,9.63,3.84.43,8.07.92,10.68,3.79-.13-1.68-.76-3.29-.89-4.96-9.85-.22-19.98-1.18-28.93-5.31,3.61-2.08,7.86-3.32,12.01-3.63,3.21-.24,6.43.08,9.64.4,2.56.26,5.12.51,7.68.77.38-1.03,1.14-2.41,1.52-3.44-11.65.08-22.93-1.77-34.32-4.2-3.68-.78-7.38-1.71-10.65-3.57s-6.11-4.76-7.16-8.39c-.41,1.01,0,2.32.02,3.41Z"/>
    <path class="cls-1" d="M384.82,576.89c-5.93-1.3-11.63-3.66-16.75-6.93,3.74,1.14,8.5,1.67,12.24,2.8,1.09.33,2.3.76,2.81,1.78.55,1.1.48,2.25,1.7,2.35Z"/>
    <path class="cls-1" d="M399.93,585.85c-2.18.14-4.25-.95-6-2.26s-3.32-2.88-5.21-3.96c4.19,1.68,9.22,1.57,13.69.99,1.04-.13,2.38-.17,2.81.79.39.88-.36,1.82-1.04,2.49-.85.83-1.71,1.67-2.56,2.5-.19.19-.49.38-.7.21s-.9-1.02-.99-.77Z"/>
    <path class="cls-1" d="M407.76,448.49c-.96,1.56-.21,3.9,1.47,4.61.37-1.35.54-3.17-.71-3.78-.29-.14-.69-.26-.7-.59s.64,0,.33.06"/>
    <path class="cls-1" d="M408,466.55c-.57,1.79.2,3.91,1.77,4.92.64-1.25-.13-3-1.49-3.35"/>
    <path class="cls-1" d="M412.03,491.21c-.64,1.17.11,2.86,1.4,3.17.49-1.04.03-2.44-.98-2.98"/>
    <path class="cls-1" d="M412.12,522.96c-.7.72-1.2,1.64-1.43,2.62,1.87,1.69,3.54,3.61,4.96,5.71-.55-3.2-1.41-6.83-4.26-8.35"/>
    <path class="cls-1" d="M412.38,541.86c-.55,1.18-.44,2.64.27,3.72.29.27.77.29,1.08.04-.18-1.23-.36-2.45-.53-3.68"/>
    <path class="cls-3" d="M352.88,561.64c-.64,2.84-1.27,5.67-1.91,8.51,1.49,1.81,2.62,3.67,4.11,5.48.58-.48,1.17-.95,1.75-1.43,2.46,3.36,6.45,5.54,10.59,5.79,1.21.07,2.48,0,3.57.53,1.36.66,2.14,2.1,3.34,3.03,1.86,1.44,4.41,1.44,6.62,2.21,1.76.62,3.31,1.73,4.89,2.73,3.43,2.16,7.12,3.85,10.82,5.5.51-1.42,1.52-3.06,2.04-4.48-6.62-1.74-11.72-7.07-17.93-9.95-4.51-2.09-9.58-2.94-13.83-5.53-2.06-1.25-3.86-2.87-5.65-4.48-3.03-2.72-6.94-4.09-8.4-7.9Z"/>
    <path class="cls-1" d="M349.72,573.63c-.11,1.73.06,3.65,1.31,4.84.81.78,1.94,1.1,3.01,1.42,12.74,3.84,24.03,11.35,35.11,18.76,1.95,1.31,5.29,1.42,7.07,2.95-1.52.48-3.26,1.64-4.78,2.12-.51.16-1.09.32-1.56.05-.38-.22-.56-.66-.76-1.04-.59-1.1-1.58-1.96-2.74-2.4-5.83-2.17-11.33-5.42-16.97-8.05-1.7-.79-3.34-1.7-4.98-2.61-3.07-1.7-6.14-3.41-9.21-5.11,3.22,4.12,6.77,8.56,11.36,11.04,1.61.87,3.34,1.51,4.85,2.54,1.66,1.13,2.98,2.7,4.52,3.99,3.37,2.82,7.68,4.26,11.98,5.1-1.77,1.38-3.32,2.61-5.09,3.99-.52.41-1.06,1.22-.54,1.62,0,2.19-.16,4.63-.16,6.82-2.35-6.53-8.5-10.84-14.18-14.79-4.84-3.36-9.67-6.72-14.51-10.08-3.06-2.12-6.3-4.48-7.5-8.02,1.64-3.6,2.61-9.37,3.76-13.16Z"/>
    <path class="cls-1" d="M373.59,624.42c-7.6-6.95-14.87-14.27-21.91-21.8-3.98-4.26-8.16-9.27-9.1-15.04-2.45,2.31-4.9,4.61-7.34,6.92,5,5.41,5.88,12.44,9.69,18.76,1.63,2.71,3.63,5.17,5.61,7.63,2.75,3.4,5.5,6.79,8.25,10.19.6.74,1.2,1.48,1.88,2.13,1.07,1.02,2.48,2.44,1.71,3.7,2.11.17,3.41-2.62,2.73-4.63s-2.53-3.34-4.19-4.65c-5.93-4.65-10.85-10.59-14.31-17.31,5.69,4.8,11.67,8.79,17.37,13.59,1.57,1.32,3.14,2.65,4.93,3.65.79.44,1.76.82,2.55.4,1.07-.56.95-3.53,2.15-3.54Z"/>
    <path class="cls-3" d="M366.06,611.71c2.74,2.35,6.01,3.98,9.32,5.37-4.14-4.1-8.63-9.25-13.61-12.21-.51,2.52,2.47,5.28,4.29,6.84Z"/>
    <path class="cls-3" d="M330.26,599.94c-2.07,1.86-4.59,3.22-7.29,3.92,2.34,8.27,7.68,15.96,12.11,23.32,4.43,7.36,7.95,16.11,5.76,24.42,4.03-4.99,9.9-8.44,16.2-9.53-5.21-1.22-9.37-5.26-12.23-9.81-2.86-4.55-4.64-9.68-6.89-14.56-2.8-6.07-6.65-11.16-7.66-17.77Z"/>
    <path class="cls-1" d="M310.73,615.14c2.6,7.35,5.2,14.72,7.29,22.24,2.02,7.29,3.46,15.44-.04,22.14,3.48-5.17,10.49-7.31,16.53-5.85-2.88-3.9-5.09-8.98-5.97-13.76-.13-.68-.23-1.37-.52-1.99-.33-.73-.89-1.32-1.36-1.97-2.61-3.6-2.34-8.49-3.6-12.77-1.16-3.97-3.69-7.56-4.03-11.68-2.53,1.98-5.1,3.34-8.3,3.63Z"/>
    <path class="cls-1" d="M296.55,620.06c-.14,1.5.19,3.04.95,4.35.51.88,1.2,1.64,1.74,2.51.73,1.2,1.14,2.56,1.54,3.9,1.17,3.91,2.33,7.82,3.5,11.73.34,1.15.69,2.31,1.37,3.3.4.58.91,1.09,1.2,1.73.26.56.33,1.19.37,1.81.32,4.03-.11,8.12-1.25,11.99,2.24-.55,4.51-.94,6.8-1.15-1.51-3.2-2.49-6.65-2.89-10.17-.14-1.23.3-3,1.52-2.81-.97-2.74-1.54-6.39-2.51-9.14-.25-.7-.5-1.41-.51-2.15-.01-.81.26-1.59.45-2.38,1.3-5.48-1.44-11.03-4.1-15.99-.19-.35-.4-.72-.76-.86-.28-.11-.6-.06-.89,0-2.35.43-4.69.85-7.04,1.28-.23.04-.5.11-.61.32s.93,1.86,1.12,1.72Z"/>
    <path class="cls-3" d="M287.24,628.12c2.88,2.59,4.65,6.24,5.6,10.01.94,3.77,1.13,7.68,1.28,11.57.19,4.81.36,9.63.48,14.44,1.69-1.37,3.32-1.55,5.01-2.93-4.12-7.81-1.53-17.73-4.94-25.89-1.01-2.43-2.55-4.68-2.99-7.27-.49-2.87.29-6.24-1.66-8.39-1.6-1.76-4.56-1.75-6.5-.37s-2.92,3.8-3.12,6.18c-1.51-2.35-4.2-3.86-6.66-5.17-1.92-1.03-4.38-1.62-6.2-.43-1.64,1.07-2.2,3.19-2.62,5.11-1.55,7.07-3.02,14.15-4.4,21.25-.11.55-.22,1.11-.32,1.66-.27,1.38-.54,2.76-.8,4.15-.31,1.59-.62,3.18-.93,4.77-.04.23-.09.47-.02.69.09.29.35.5.61.67,1.51,1.01,3.26,1.65,5.07,1.85-.02-3.66.16-7.6,1.71-10.91.51-1.1,1.18-2.11,1.74-3.18,2.41-4.65,2.52-10.13,2.56-15.37.02-1.99.16-4.26,1.69-5.51.95,4.01,1.86,8.11,2.17,12.22.1,1.41.13,2.83.43,4.21.29,1.36.84,2.66,1.16,4.01,1.16,4.88-.7,9.96-2.97,14.43,3.2.26,6.38.89,9.59,1.15-.41-6.43-.05-12.86-.46-19.28-.53-1.44.1-3.22,1.43-3.99,1.68,8.64,1.83,16.83.94,25.59,1.28-5.29,1.86-10.75,1.96-16.19.11-5.86-.48-11.78.56-17.55.1-.57.16-1.89.59-1.51Z"/>
    <path class="cls-1" d="M251.22,656.89c1.36-3.04,2.71-6.08,4.07-9.12,1.44-3.23,2.88-6.46,4.32-9.69-1.03,5.8-1.27,11.76-2.3,17.56-1.67.64-4.43.6-6.1,1.24Z"/>
    <path class="cls-1" d="M240.26,653.46c1.59-3.81,2.66-7.86,4.64-11.48,1.55-2.83,3.62-5.34,5.21-8.15,2.95-5.19,4.19-11.34,3.47-17.27,2.55,1.64,4.8,3.08,7.03,5.13-2.88,6.78-5.58,13.9-7.86,20.91-1.5,4.61-2.79,9.41-5.62,13.33-2.65-.34-4.72-.89-6.87-2.48Z"/>
    <path class="cls-1" d="M244.71,637.58c-2.02,2.65-4.04,5.31-6.05,7.96-1.9,2.49-4.5,5.28-7.56,4.64,1.78.59,4.51,1.8,5.65.31.41-.53.56-1.21.81-1.83.75-1.93,2.33-3.38,3.74-4.89,1.99-2.14,2.02-3.61,3.41-6.18Z"/>
    <path class="cls-3" d="M214.49,635.2c1.99,2.51,4.38,4.68,7.06,6.41,2.87-2.54,6.85-4.2,9.72-6.74,3.08-2.73,6.23-5.51,10-7.16.84-.37,1.72-.69,2.44-1.25.85-.67,1.43-1.62,1.98-2.55,1.92-3.23,3.83-6.45,5.75-9.68-1.92-1.03-3.81-2.04-5.73-3.08-2.32,3.27-5.28,6-8.28,8.66-1.33,1.18-2.67,2.37-4,3.55-5.45,4.84-12.36,8.74-18.94,11.84Z"/>
    <path class="cls-1" d="M236.88,606.52c-.12,4.44-2.43,8.77-6.04,11.33,1.11.38,2.45-.03,3.16-.97-.21,1.03-.41,2.06-.62,3.09,3.15-1.96,5.47-5.24,6.28-8.87-1.02-1.68-1.76-2.9-2.78-4.58Z"/>
    <path class="cls-1" d="M230.08,602.98c-.31,2.58-1.86,4.88-3.8,6.6-1.94,1.72-4.26,2.93-6.55,4.12-3.74,1.95-7.53,3.92-11.65,4.83-3.26.73-6.89.7-9.67-1.16,4.75,2.69,7.47,6.92,9.6,11.98,6.02-3.87,12.5-7.66,18.51-11.52,2.19-1.41,4.41-2.84,6.07-4.85,1.66-2-1.95-7.45-2.52-10Z"/>
    <path class="cls-3" d="M193.95,603.34c1.21,2.1,2.42,4.21,3.63,6.31,8.45.73,17.17-1.1,24.66-5.11.26.77.53,1.97.79,2.75,2.3-1.65,4.51-3.43,6.62-5.32-.13-2.45-.37-5-.5-7.45-1.02,2.52-3.98,4.04-6.46,5.12-9.21,4-18.79,5.05-28.74,3.69Z"/>
    <path class="cls-1" d="M212.3,599.19c-1.14,1.31-3.04,1.57-4.76,1.63-4.11.14-8.25-.41-12.19-1.62,5.77-.17,11.2-.48,16.95-.01Z"/>
    <path class="cls-1" d="M189.97,586.02c-.09,1.58.18,3.18.79,4.63,4.16.48,8.31.91,12.47,1.4.77.09,1.55.18,2.25.52.62.3,1.14.78,1.73,1.14,1.1.68,2.4.95,3.67,1.19,5.46,1.03,11.73,1.66,15.96-1.97-.13-2.06-.6-3.69-.73-5.76-5.77.97-11.53,1.57-17.29,2.54.41.03-.05-.61-.45-.6-6.88.23-13.49,1.77-18.39-3.1Z"/>
    <path class="cls-1" d="M215.75,585.84c-8.68,1.17-17.83-1.35-25.01-6.4v-6.19c1.12,1.34,2.07,1.67,3.52,2.63,8.1,5.35,11.8,9.7,21.49,9.96Z"/>
    <path class="cls-1" d="M215.32,581.57c.26-.17.5.35.27.56s-.59.13-.88.04c-8.64-2.65-16.44-7.99-22.05-15.1-.85-.3-.59-1.77.31-1.69s1.5.93,2.02,1.67c3,4.23,7.54,7.02,11.96,9.7,2.93,1.77,5.45,3.06,8.37,4.83Z"/>
    <path class="cls-3" d="M198.47,557.04c-1.26,2.03-2.8,3.89-4.56,5.5,5.74,4.75,12.21,9.72,18.37,13.9,3.3,2.24,7.26,4.39,11.08,3.25.51-1.42,1.42-3.48,1.93-4.9-5.77-.46-11.41-3.36-16.43-6.27-2.42-1.4-4.84-2.85-6.79-4.85-1.95-2-3.55-3.83-3.6-6.63Z"/>
    <path class="cls-3" d="M204.63,548.49c-.63,3.35,2.22,6.24,4.8,8.45,1.77,1.52,3.55,3.03,5.32,4.55,1.46,1.25,2.92,2.49,4.48,3.6,2.71,1.93,5.72,3.43,8.89,4.42.38-.77.68-1.67,1.07-2.45-3.59-4.6-7.97-9.27-12.21-13.27-.99-.94-2.01-1.87-2.76-3.02-2.07-3.2-1.6-7.35-1.05-11.12-3.02,1.45-5.94,3.32-8.49,5.51-.7.6-.84,2.86-.05,3.32Z"/>
    <path class="cls-1" d="M219.27,537.23c1.86,2.35-1.75,5.94-.48,8.66.3.65.84,1.14,1.37,1.62,5.24,4.86,9.63,10.65,12.88,17.03,1.15-.77,2.65-1.75,3.8-2.52-1.06-2.99-1.73-6.09-2.12-9.24-.14-1.11-.24-2.23-.56-3.29-1.04-3.37-4.31-5.96-4.42-9.49.5,3.61.77,7.62,1.26,11.23-2.48-1.74-4.24-5.11-5.06-8.04s-.94-6.01-1.05-9.05c-1.9.65-3.9,2.07-5.63,3.09Z"/>
    <path class="cls-1" d="M231.5,531.87c.56,3.95,1.11,7.9,1.67,11.85.08-.47.17-.94.25-1.41.61-3.4.22-4.94.51-8.39.11-1.27-.33-3.1-1.59-2.88-.56.1-1.3.49-.84.83Z"/>
    <path class="cls-1" d="M238.81,531.87c1.96,9.24,1.39,19.01-1.64,27.95,5.3-8.71,5.27-18.41,1.64-27.95Z"/>
    <path class="cls-3" d="M243.15,532.19c2.06,9.66-1.42,19.7-.42,29.53.77,0,1.43-.06,2.2-.06,1.79-7.39,3.6-15.17,5.39-22.56.39-1.63.79-3.32.47-4.97-.5-2.53-5.09-2.2-7.64-1.93Z"/>
    <path class="cls-1" d="M259.53,535.37c.61.75.9,1.74.79,2.7-.97,8.46-8.44,14.8-13.58,21.56,1.54,1.02,3.35,2.29,5.1,2.86,2.84-3.73,6.09-7.51,8.93-11.25,1.12-1.15,1.3-2.9,1.84-4.42.54-1.52,1.97-3.07,3.5-2.59.38-.9,1.12-1.78,1.51-2.69-2.66-2.27-5.15-4.28-8.08-6.18Z"/>
    <path class="cls-3" d="M277.03,551.03c-2.22-2.41-4.69-4.73-6.9-7.14,1.08,7.12-3.82,17.2-10.92,16.25-.79-.11-1.41.73-1.57,1.51s-.06,1.63-.37,2.37-1.29,1.31-1.9.79c4.07-.65,8.43-1.89,11.93-4.09,2.05-1.29,4.12-2.6,5.79-4.35,1.27-1.32,3.23-3.65,3.93-5.34Z"/>
    <path class="cls-1" d="M279.93,559.34c-.5,2.57-3.09,4.13-5.53,5.07-3.76,1.46-7.77,2.25-11.79,2.35,2.49,2.03,6.52,3.27,9.69,2.8,3.17-.47,6.15-1.75,9.17-2.83.95-3.12-.73-4.22-1.53-7.39Z"/>
    <path class="cls-1" d="M281.45,575.96c-.64,2.19-1.7,3.59-2.35,5.78-1.24-1.69-2.7-3.51-4.76-3.79-1.76-.24-3.5.72-5.27.58-1.25-.1-2.38-.74-3.46-1.39-2.12-1.28-4.18-2.66-6.18-4.12.4-1.11.98-1.23,2.14-1.04,6.6,1.08,13.27,2.91,19.87,3.99Z"/>
    <path class="cls-3" d="M259.95,578.62c1.22,3.19,4.97,4.44,7.51,6.71,2.54,2.27,3.9,5.8,3.54,9.2,1.79-1.68,3.68-2.55,5.48-4.23-2.2-2.86-5.64-4.89-8.86-6.48-2.75-1.35-4.92-3.84-7.66-5.19Z"/>
    <path class="cls-1" d="M255.99,581.48c1.9,1.91.37,5.23,1.1,7.83.33,1.18,1.12,2.17,1.65,3.27,1.19,2.5.95,5.49-.07,8.06,1.92-.64,3.96-1.22,5.88-1.86.13-3.02-.22-6.46-1.58-9.15-.44-.88-.96-1.72-1.48-2.57-1.24-2.02-2.48-4.04-3.89-5.94-.62.12-.97.24-1.6.35Z"/>
    <path class="cls-1" d="M252.26,586.8c-.07-.91-.05-1.83.04-2.74.05-.5.25-1.12.75-1.15.48-.03.76.54.9,1,.89,2.92,1.8,5.89,1.76,8.94-.03,3.05-1.15,6.25-3.6,8.05-.55.41-1.2.75-1.89.72s-1.38-.54-1.43-1.23c-.03-.4.16-.78.34-1.14,1.92-3.96,2.71-8.46,2.27-12.84.31,4.63-6.5,9.74-10.29,12.39-.61-1.27-2.08-2.34-2.07-3.75,2.46-.32,4.62-2.32,5.15-4.76.21-1,.2-2.08.73-2.94s1.98-1.25,2.51-.38c.54.88,4.02-.8,4.83-.17Z"/>
    <path class="cls-1" d="M242.34,585.26c-.22,2.12-1.48,4.1-3.3,5.18-1.82,1.09-4.15,1.25-6.11.42,2.55-.98,4.39-2.76,6.57-4.4,1.15-.86,1.65-.4,2.83-1.21Z"/>
    <path class="cls-1" d="M228.07,580.81c2.27,3.68,7.92,4.62,11.24,1.88.8-.66,1.5-1.74,1.07-2.68-.33-.73-1.19-1.03-1.93-1.33-3.3-1.32-5.96-4.19-7.03-7.6-1.69,1.09-1.37,3.8-.06,5.34s3.24,2.35,4.8,3.62c-2.71.45-5.53.16-8.09-.82-.01.59-.03,1.19-.04,1.78"/>
    <path class="cls-1" d="M232.82,568.72c1.49,2.86,4.18,5.07,7.27,5.95-.02-1.61-2.44-1.84-3.42-3.12-.59-.77-.58-1.87-1.11-2.69s-2.17-.88-2.16.1"/>
    <path class="cls-1" d="M240.67,566.7c.67,1.64,1.35,3.27,2.02,4.91.86-.71.94-2.06.49-3.08s-1.31-1.79-2.15-2.52"/>
    <path class="cls-1" d="M12.57,142.85c.68,5.91,2.25,11.71,4.64,17.15,1.11,2.54,3.68,5.44,6.08,4.06,1.8-1.03,1.69-3.83.5-5.54s-3.06-2.81-4.48-4.33c-2.93-3.15-3.61-7.78-3.64-12.1-.72.19-1.44.39-2.17.58"/>
    <path class="cls-1" d="M25.44,147.84c7.9,1.01,12.79,9.49,20.28,12.2,4.49,1.63,9.56.99,13.97-.85,4.41-1.84,8.26-4.8,11.92-7.88-8.95,7.53-24.39,15.11-36.21,14.52-.44-6.64-6.25-12.6-9.96-18Z"/>
    <path class="cls-1" d="M126.2,133.7c-8.13,4.84-15.61,10.78-22.2,17.6-3.98,4.13-8.65,8.98-14.31,8.21,2.86-1.66,6.5-1.38,8.9-3.67,1.05-1,1.71-2.33,2.43-3.58,5.15-8.91,14.99-17.4,25.18-18.56Z"/>
    <path class="cls-1" d="M100.37,133.88c-4.48,4-11.34,2.79-17.24,3.84-5.98,1.07-11.19,4.62-16.4,7.76-5.21,3.15-12.79,8.88-17.92,5.61-6.75-4.31-14.32-7.31-22.17-8.79-1.2-.23-3.66.71-4.43,1.66.44.27.87.55,1.31.82-1.79-.13-3.56-.29-5.36-.42,7.36-4.82,16.78-1.74,25.49-.64,10.21,1.29,20.58-.78,30.35-4.02,4.96-1.64,9.82-3.59,14.9-4.81,8.39-2.02,17.14-1.99,25.64-3.52,8.5-1.52,17.21-4.98,22.2-12.07-.69-.64-1.37-1.28-2.06-1.92.86-.12,1.71-.24,2.57-.36-.94-1.28-1.89-2.55-2.83-3.83,2.14,1.48,4.99,1.88,7.39,2.89,2.43,1.03,5.03,1.81,7.65,1.6,3.26-.26,6.22-2.02,8.74-4.11,4.45-3.67,8.01-8.61,9.36-14.23.85-3.53.75-7.47-1.17-10.55-1.26-2.02-3.2-3.51-5.21-4.77-5.14-3.23-11.63-5.22-17.26-2.97.52-2.1,1.64-4.16,3.79-4.12-1.32-1.68-1.04-3.91-.51-5.98.53-2.07,1.76-3.89,3.14-5.51.57,2.28.62,5.05,1.19,7.33.11.44.22.9.09,1.34-.09.33-.31.6-.52.87-.64.81-1.28,1.61-1.92,2.42,8.45,2.37,18.15,6,21.33,14.22,1.24,3.2,1.29,6.74,1.07,10.17-.67,10.54-4.69,22.04-14.14,26.65-4.36,2.13-9.33,2.5-14.08,3.44-4.76.94-9.72,2.7-12.55,6.66,4.24-5.3,9.06-10.68,15.42-13,2.38-.87,4.91-1.25,7.32-2.03,8.2-2.68,14.49-10.51,15.38-19.14-2.93,4.84-6.24,9.41-10.78,12.77s-10.96,4.78-15.86,1.97c-7,6.54-17.09,9.18-26.18,12.13-9.09,2.95-18.58,6.77-24.1,14.62-.04-.61-.08-1.23-.12-1.84-1.34-.76-2.81-1.29-4.33-1.54,4.66,1.72,9.75-.8,13.84-3.62,4.09-2.83,8.28-6.18,13.24-6.32"/>
    <path class="cls-1" d="M63.63,139.74c16.07-4.2,32.14-8.4,48.21-12.6,7.47-1.95,15.57-4.33,19.98-10.71-1.62-.78-3.15-1.43-4.78-2.22.82-.46,1.64-.93,2.46-1.39-1.53-4.38-.92-9.23,1.08-13.42-6.43,3.53-7.49,12.59-11.87,18.5-2.88,3.89-7.21,6.43-11.63,8.38-6.21,2.73-12.79,4.49-19.33,6.24-12.46,3.32-24.92,6.65-37.38,9.97"/>
    <path class="cls-4" d="M153.57,83.24c-.39,0-.79.04-1.18.12-.13.46-.26.93-.39,1.39,1.71,1.06,3.46,2.16,4.63,3.8s1.6,3.98.5,5.67c-.55.85-1.49,1.62-1.39,2.63.13,1.25,1.84,2.13,1.49,3.34-.1.33-.35.6-.58.85-.8.84-1.6,1.68-2.4,2.52-.37.39-.75.79-1.21,1.08-.5.31-1.06.48-1.62.65-2.11.64-4.21,1.27-6.32,1.91-.44.13-.92.26-1.38.26-.37,0-.72-.08-1.02-.31-.67-.52-.68-1.6-.25-2.33.35-.6.95-.98,1.3-1.6-.9-.88-2.16-1.42-3.47-1.42-.16,0-.32,0-.48.03-1.59.17-3.13,1.64-2.83,3.22.21,1.08,1.15,1.85,1.68,2.82.39.73.61,1.65,1.34,2.04.3.16.65.2.98.23.6.05,1.21.08,1.81.08,2.6,0,5.19-.5,7.6-1.47.37-.15.76-.33.96-.67.23-.38.18-.86.34-1.27.22-.56.79-.88,1.3-1.19,1.77-1.07,3.34-2.49,4.59-4.14.8-1.05,1.49-2.44.96-3.65-.17-.39-.46-.72-.62-1.12-.62-1.49.67-3,1.36-4.46,1-2.1.72-4.76-.71-6.59-1.18-1.52-3.09-2.42-5.01-2.42h0Z"/>
    <path class="cls-1" d="M135.39,100.66l3.04-.04c.32-.7-.18-1.65-.94-1.77s-1.53.63-1.43,1.4"/>
    <path class="cls-1" d="M138.22,93.16c-.41.34-.85.7-1.01,1.21s.08,1.19.6,1.28c.23.04.47-.04.67-.17.84-.55.86-1.98.03-2.55.93-3.06,6.66-9.12,9.62-10.29.23,1.37-.18,3.42-.33,4.8-2.59-.88-7.46,3.99-9.59,5.72Z"/>
    <path class="cls-2" d="M144.76,89.62c-1.64,1.42-2.41,3.77-1.93,5.89.34,1.5,1.24,3.03.68,4.46-.21.53-.6.97-.79,1.51s-.04,1.28.5,1.45c.26.08.54,0,.81,0,.91-.04,1.71.59,2.6.78,1.23.27,2.52-.35,3.4-1.26s1.42-2.09,1.95-3.24c.32-.69.64-1.4,1.17-1.95.37-.39.83-.69,1.22-1.08,1.07-1.08,1.38-2.8.94-4.26s-1.55-2.67-2.88-3.41c-2.33-1.3-5.38-1.18-7.6.29"/>
    <path class="cls-1" d="M11.96,158.89c-2.38-4.53-3.31-9.82-2.59-14.89-.89.24-.97,1.47-.86,2.39.23,1.91.47,3.83.7,5.74.32,2.58.63,10.34,4.14,10.2-.26-1.25-.79-2.31-1.39-3.44Z"/>
    <path class="cls-1" d="M14.03,178.48c2.67-3.14,2.85-8.16.4-11.48,5.02,2.01,8.98,7.53,13.58,10.38.34.21.72.42,1.12.39.47-.03.85-.35,1.21-.66,1.37-1.21,2.74-2.42,4.12-3.63,3.21,1,6.85,1.62,10.2,1.36.92-.07,1.88-.2,2.64-.72.73-.49,1.21-1.27,1.8-1.92,3.63-4.01,10.86-2.76,14.36-6.88.78-.92,1.3-2.03,2.1-2.93,1.3-1.47,3.18-2.23,4.84-3.27,2.58-1.61,4.64-3.93,7.02-5.83s5.34-3.42,8.35-2.99c-1.84,1.37-3.63,2.7-4.81,4.67-.55.92-.94,1.96-1.67,2.74s-1.98,1.23-2.87.65c-.99,3.56-4.44,6.38-7.67,8.12-2.63,1.42-5.45,2.48-8.35,3.15,2.66-.47,5.09.21,7.75.63-5.39,2.96-12.51.68-17.89,3.66-1.09.6-2.11,1.47-2.5,2.65-.25.75-.23,1.58-.57,2.29-.97,1.98-3.81,1.7-5.96,1.25-6.71-1.42-13.68-1.55-20.43-.37-2.65.46-4.96.76-6.74-1.27Z"/>
    <path class="cls-1" d="M94.85,165.16c6.86-2.22,13.15-6.17,18.16-11.38,4.78-4.98,9.01-11.46,15.76-12.81-.8,1.56-1.38,3.24-1.72,4.96-.66,3.4-4.55,5.27-6.68,7.99-1.39,1.78-2.81,3.59-4.63,4.93-1.87,1.37-4.08,2.19-6.3,2.84-4.68,1.37-9.73,3.17-14.59,3.46Z"/>
    <path class="cls-1" d="M125.24,152.85c1.62-2.13,4.05-3.46,6.17-5.09,2.12-1.63,4.11-3.89,4.13-6.57,3.3-1.94,6.96-3.58,10.46-5.13.55,1.69-.89,3.33-2.24,4.48-5.4,4.6-12.06,9.43-18.53,12.31Z"/>
    <path class="cls-1" d="M173.85,121.68c-3.12.91-5.26,3.79-6.68,6.73-1.42,2.94-2.38,6.13-4.29,8.77-2.6,3.59-6.92,5.85-11.33,5.93,1.26.8,2.73,1.26,4.21,1.3.16.99-.56,1.87-1.23,2.61-1.08,1.19-2.15,2.38-3.29,3.52-5.52,5.54-12.34,9.77-19.75,12.23,3.29.02,7.16-.31,10.12-1.77,6.32-3.11,8.34-11.6,14.35-15.28,3.58-2.2,8.72-2.92,10.16-6.88.51-1.41.4-2.95.48-4.44.27-5.01,3.24-9.72,7.24-12.72Z"/>
    <path class="cls-1" d="M177.02,89.75c.22-2,.53-4.16,1.95-5.58.85-.86,2-1.34,3.03-1.97,2.03-1.25,3.66-3.16,4.57-5.37-2.68,2.63-6.07,4.54-9.7,5.46-.81.21-1.73.43-2.13,1.17-.2.37-.24.8-.27,1.22-.14,1.98-2.27,13.67-.7,14.72,2.36,1.58,3.11-8.14,3.26-9.64Z"/>
    <path class="cls-1" d="M152.69,72.1c3.72-.1,7.45,1.26,10.25,3.73,1.04-.43,1.5,2.01,2.58,1.71.49-.14.62-.75.91-1.17.43-.65,1.27-.87,2.04-.99,2.62-.42,5.3-.26,7.94-.5,2.64-.24,5.38-.94,7.31-2.77,1.18-1.12,2.01-2.62,3.33-3.57,2.07-1.49,4.96-1.36,7.11-2.74.06.71.93,1.1.99,1.81,5.39-4.89,11.46-9.02,17.96-12.25,1.3-.65,2.64-1.26,3.77-2.18,1.56-1.26,2.64-3,3.98-4.49,3.05-3.42,7.31-5.46,11.44-7.41,1.39-3.53,1.99-8.31,1.91-12.11-.04-2.02-.29-4.11.41-6,.67-1.82,2.12-3.22,3.34-4.72s2.27-3.39,1.92-5.3c-3.64,2.35-5.96,5.84-7.77,9.78-5.34,11.57-12.04,22.92-22.06,30.73-3.13,2.44-6.69,4.55-10.62,4.97,1.66-3.35,4.04-6.7,7.05-8.9,2.27-1.65,4.97-3.03,6.21-5.56.52-1.07.74-2.28,1.36-3.3.9-1.49,2.52-2.4,3.56-3.79,1.01-1.34,1.41-3.03,1.85-4.65,2.01-7.4,5.31-14.44,9.71-20.71-9.39,6.2-16.65,15.29-19.69,26.18-.69,2.49-1.21,5.08-2.53,7.29-1.89,3.16-5.23,5.18-7.43,8.13-1.21,1.62-2.06,3.49-3.35,5.04-1.82,2.19-4.4,3.59-6.94,4.86-5.85,2.92-11.88,5.46-18.07,7.57-5.62,1.92-13.38,4.4-18.47,1.33Z"/>
    <path class="cls-1" d="M199.36,51.29c-1.54,1.81-3.55,3.15-5.53,4.45-2.55,1.68-5.1,3.37-7.65,5.05-5.28,3.48-11.08,7.11-17.37,6.61,3.57-.53,7.55-1.62,10.86-3.04,3.13-1.35,5.88-3.43,8.6-5.49,3.6-2.73,7.48-4.84,11.08-7.58Z"/>
    <path class="cls-1" d="M207.71,34.19c-1.29,3.82-3.28,7.39-5.83,10.5-5.27,6.43-12.69,10.63-20,14.57,5.76-3.12,11.09-6.37,16.85-9.49,1.09-.59,2.19-1.19,3.16-1.98,3.79-3.09,5.07-8.75,5.82-13.6Z"/>
    <path class="cls-1" d="M219.52,55.33c3.31-2.52,6.99-4.52,10.25-7.1s6.17-5.92,7.13-9.98c.49-2.08.44-4.25.65-6.38.25-2.63.9-5.23,1.9-7.68.06,6.07-.75,12.04-1.72,18.03-.29,1.8-.68,3.71-1.93,5.03-.9.96-2.15,1.51-3.37,2.02-4.21,1.8-8.71,4.25-12.92,6.05Z"/>
    <path class="cls-1" d="M210.7,63.08c-4.78,1.32-7.55,6.71-12.29,8.18-.98.31-2.06.45-2.85,1.12s-1.01,2.13-.12,2.64c5.51-2,9.88-6.45,15.72-6.19-1.43-1.53-1.84-4.16-.47-5.74Z"/>
    <path class="cls-3" d="M213.67,64.94c1.64-5.97,7.94-10.25,14.06-9.55-.47-.76.03-1.8.79-2.27s1.67-.54,2.54-.7c4.84-.89,8.74-4.87,10.49-9.5s1.6-9.78.62-14.63c-.31-1.52-.7-3.06-.57-4.61.13-1.55.92-3.15,2.34-3.76,1.65.8,3.3,1.6,4.95,2.4-1.66.6-2.74,2.5-3.65,4.02-.79,1.31-.75,2.95-.45,4.45.54,2.69,1.85,5.17,2.57,7.81s.76,5.74-.98,7.86c1.39.46,3.65,2.09,5.04,2.55-4.52-.15-9.41.78-13.51,2.68,4.61-.25,9.34.16,13.95-.1-.66,1.02-1.28,2.02-1.94,3.04-5.12-.13-10.23-.14-15.36-.27,4.25,2.41,9.03,3.44,13.84,2.58,1.96-2.16,4.92-3.7,7.27-5.42.46.21.92.41,1.39.62.71.61.95,1.71.57,2.57s-1.35,1.41-2.28,1.29c-.21,1.59-.29,3.59.66,4.87.31.42.72.75,1.03,1.16.91,1.21.81,3.08-.23,4.17,2.88,4.15.99,10.5,2.54,15.31.48,1.48,1.27,2.84,1.64,4.35.56,2.3.03,4.84-1.4,6.71-1.51,19.51-5.44,39.23-10.99,57.98-.35,1.16-.7,2.41-.34,3.57.85,2.72,4.58,2.86,7.39,2.45-6.38,3.38-13.3,5.74-20.36,7.23-2.14.45-4.33.81-6.51.61-2.73-.26-5.3-1.39-7.93-2.15s-5.58-1.13-8.04.09c1.41-1.16,2.28-2.56,3.69-3.72,3.12,1.36,6.39,3.02,9.79,3.29s6.98-.45,9.64-2.58c4.48-3.58,5.32-9.93,6.64-15.53,1.57-6.71,4.26-13.09,6.93-19.44-2.73.01-5.27,1.87-6.74,4.19s-2.52,4.95-4.45,6.9c-1.66,1.68-3.85,2.7-5.99,3.7-3,1.39-6,2.79-8.91,4.37-3.55,1.93-6.95,4.11-10.35,6.3-.56.36-1.12.72-1.68,1.08-3.77,2.43-7.54,4.85-11.32,7.28,1.4-2.26,1.21-3.75,1.1-6.41-2.05-.74-4.21.57-5.99,1.82-3.05,2.14-6.09,4.3-9.11,6.48.39-1.54.68-3.06-.2-4.38-.27-.41-.61-.85-.52-1.33.09-.47.56-.76.99-.97,4.93-2.34,11.34-2.22,14.76-6.49,1-1.25,1.93-2.95,3.52-2.97,4.18-.04,8.06-2.86,11.64-5.03,1.29-.78,2.64-1.71,4.14-1.6,4.92-2.9,9.13-7.52,11.49-12.73,2.28-5.03,3.03-10.61,3.53-16.11.32-3.51.63-7.24,2.7-10.09-1.74-5.52-4.85-10.89-7.84-15.84-2.67-4.41-5.74-8.64-9.91-11.65-1.92-1.38-4.24-2.09-6.37-3.1,4.06-.6,8.42-.91,12.04,1.03,2.65,1.42,4.58,3.89,6.21,6.43,8.78,13.66,10.93,31.42,5.67,46.8,5.02-1.94,7.47-7.59,8.83-12.83,1.96-7.57,2.75-15.44,2.32-23.25-.29-5.35-1.21-10.81-3.92-15.42-3.09-5.25-8.5-9.06-14.46-10.18-5.96-1.12-12.2.8-16.98,4.57Z"/>
    <path class="cls-3" d="M147.98,161.13c4.99-6.09,11.23-11.14,18.21-14.73,1.95-1,4.09-2.01,5.17-3.93.98-1.75.86-3.88,1.12-5.88.32-2.51,1.27-4.89,2.21-7.23,2.74-6.86,5.49-13.71,8.23-20.57,1.12-2.8,2.26-5.68,2.34-8.7.03-1.02-.07-2.05.04-3.07.12-1.11.48-2.17.84-3.22,1.59-4.69,3.18-9.38,4.77-14.07-.56,5.13-.64,10.73-.66,15.89,0,1.62.02,3.26.34,4.84.49,2.37,1.67,4.59,3.35,6.32-1.35.47-2.69.93-4.04,1.4-1.46,2.08-3.05,4.25-4.51,6.33-.88,1.25-1.78,2.55-2.09,4.06-.29,1.41-.02,2.88-.05,4.32-.05,2.64-1.08,5.15-2.1,7.59-1.71,4.09-3.46,8.26-6.32,11.63-1.64,1.94-3.7,4.78-1.97,6.64-7.54,5.33-16.15,9.5-24.9,12.39Z"/>
    <path class="cls-1" d="M171.91,155.58c1.35.81,2.44,2.04,3.11,3.46,5.77-3.81,10.71-8.71,15.76-13.45,1.91-1.79,3.82-3.59,5.73-5.38.57-.54,1.16-1.09,1.49-1.8.35-.74.39-1.57.43-2.39.2-4.05.39-8.09.59-12.14.22-4.56.29-9.6-2.63-13.09-3.77,7.07-2.97,15.73-6.17,23.07-.49,1.12-1.09,2.23-2.01,3.03-.47.4-1.01.72-1.43,1.17-.99,1.06-1.15,2.62-1.53,4.02-1.63,6.06-7.87,10.48-13.35,13.49Z"/>
    <path class="cls-3" d="M195.29,92.84c1.2,4.04,3.77,7.49,5.85,11.16,5.44,9.62,7.5,21.01,6.53,32.03,1.4-.11,2.88-.25,4.03-1.07s1.76-2.57.9-3.69c-.36-.47-.92-.75-1.31-1.2-.7-.8-.74-1.97-.8-3.03-.76-15.88-9.72-31.64-15.79-46-2.02,2.29-.23,9.03.61,11.82Z"/>
    <path class="cls-3" d="M199.92,77.12c2.24,4.09,4.49,8.18,6.73,12.28.45.82.9,1.65,1.24,2.53.35.91.57,1.86.78,2.8.94,4.09,1.89,8.18,2.83,12.28-1.2.43-.53,2.24.21,3.29,4.51,6.29,4.49,14.66,4.28,22.41,2.83.65,5.57-2.11,5.75-5.02.18-2.91-1.14-5.68-2-8.47-1.36-4.46-1.54-9.19-1.87-13.85-.35-5.05-.94-10.26-3.45-14.64-1.49-2.6-3.6-4.78-5.36-7.19-2.16-2.97-3.8-6.31-4.84-9.83-1.3.74-3.02,2.69-4.32,3.42Z"/>
    <path class="cls-3" d="M209.31,72.08c1.12,4.11,5.3,6.46,7.91,9.82,2.23,2.86,3.3,6.44,4.18,9.96,2.63,10.45,4.02,21.22,4.14,32,3.6-4,3.5-9.51,3.17-14.9-.56-9.25-1.66-19.1-7.54-26.23-1.61-1.95-3.52-3.61-5.42-5.27-1.94-1.69-4.52-3.7-6.45-5.38Z"/>
    <path class="cls-1" d="M253.55,44.08c-.22,1.73-.74,3.52-.14,5.16,3.19-.12,6.38-.13,9.57-.02.22-.87-.39-1.74-1.12-2.25s-1.6-.79-2.32-1.3c-2.71-1.92-2.36-5.98-3.5-9.11-.85-2.35-3.1-5.01-5.58-5.17-.7,3.73,3.67,8.04,3.09,12.69Z"/>
    <path class="cls-1" d="M257.9,33.26c6.1,12.96,18.99,21.06,31.21,28.44,2.33,1.4,4.73,2.84,7.41,3.25,1.91.29,3.88.05,5.76.5,3.78.9,6.41,4.36,8.14,7.87,3.66,7.41,4.76,16.07,3.07,24.17,2.13-5.45,3.99-11.21,4.55-17.04.57-5.83-.64-12.08-4.53-16.44-3.18-3.55-7.73-5.46-12.09-7.35-15.23-6.59-29.31-14.8-43.51-23.4Z"/>
    <path class="cls-3" d="M281.32,150.8c8.74-8.4,15.43-19.06,18.53-30.8s2.5-24.57-2.34-35.7c-1.81-4.17-4.26-8.17-7.8-11.01-3.47-2.79-7.75-4.29-11.69-6.36-3.94-2.06-7.79-5.02-9.12-9.28.03,7.39,6.14,14.44,10.32,20.53,6.65,9.69,11.54,21.34,10.07,33.03-.68,5.43-2.69,10.59-4.69,15.69-3.22,8.22-6.44,16.43-9.66,24.65-3.85.87-7.32,2.43-11.17,3.3.12-1.08-.02-1.83-.35-2.87-.8-.13-1.6-.27-2.4-.4,5.89-4.98,9.51-12.58,9.66-20.32,0-.48.03-1.02.35-1.37.34-.37.89-.42,1.38-.54,1.33-.34,2.43-1.49,2.7-2.85s-.29-2.85-1.39-3.68c2.1-4.84,2.98-10.31,2.58-15.58,1.22-.26,2.21-.92,3.43-1.17-1.18,7.55-1.69,15.2-1.52,22.84,2.87-1.47,4.2-4.73,5.41-7.73,4.25-10.56,5.57-23.06.14-33.06-.82-1.51-2.02-3.09-3.73-3.24-1.24,4.63-1.65,9.48-1.21,14.25-.97-.13-2.4.22-3.37.09,1.68-4.53,1.95-9.58.75-14.26-.79-3.08-2.18-5.97-3.47-8.88-3.01-6.83-5.47-13.88-7.91-20.93-.71-2.05-1.43-4.12-1.63-6.28,13.36,12.88,33.05,19.68,42.22,35.85,1.8,3.17,3.43,6.9,6.81,8.26-1.49,3.26-4.06,6.5-5.74,9.66-1.67,3.17-2.94,6.71-2.56,10.28,8.15-5.16,13.03-14.95,16.78-23.88,1.87-4.47,3.68-8.96,5.41-13.48,1.47-3.85,2.91-8.03,1.82-12,2.35,2.18,4.75,3.94,7.1,6.12-.8.38-1.06,1.38-1.25,2.25-1.13,5.14-3.09,10.1-5.76,14.63,3.45-5.03,6.48-10.37,8.51-16.13,1.15,1.29,2.57,2.67,3.73,3.96-9.57,11.99-14.54,27.12-23.08,39.86-8.11,12.09-19.13,22.34-24.92,35.71-3.69-2.17-7.44-1.62-10.94.86Z"/>
  </g>
</svg>